<svg width="22" height="22" viewBox="0 0 22 22" fill="none" xmlns="http://www.w3.org/2000/svg">
<g id="eye 2">
<g id="Group">
<g id="Group_2">
<path id="Vector" d="M21.9185 11.2596C21.7453 11.5117 17.5817 17.416 10.9999 17.416C5.35226 17.416 0.319682 11.5456 0.107928 11.2953C-0.0359761 11.1248 -0.0359761 10.8746 0.107928 10.7032C0.319682 10.4529 5.35226 4.58247 10.9999 4.58247C16.6476 4.58247 21.6802 10.4529 21.8919 10.7032C22.0249 10.8608 22.0368 11.0891 21.9185 11.2596ZM10.9999 5.49913C6.47247 5.49913 2.16771 9.8167 1.07414 10.9992C2.16591 12.1826 6.46607 16.4993 10.9999 16.4993C16.2974 16.4993 20.0366 12.1881 20.9496 11.024C19.8954 9.87905 15.5659 5.49913 10.9999 5.49913Z" fill="white"/>
</g>
</g>
<g id="Group_3">
<g id="Group_4">
<path id="Vector_2" d="M11 14.666C8.97778 14.666 7.33325 13.0215 7.33325 10.9993C7.33325 8.97711 8.97778 7.33258 11 7.33258C13.0221 7.33258 14.6667 8.97711 14.6667 10.9993C14.6667 13.0215 13.0221 14.666 11 14.666ZM11 8.2492C9.48379 8.2492 8.24992 9.48307 8.24992 10.9993C8.24992 12.5154 9.48379 13.7493 11 13.7493C12.5161 13.7493 13.75 12.5154 13.75 10.9993C13.75 9.48307 12.5161 8.2492 11 8.2492Z" fill="white"/>
</g>
</g>
</g>
</svg>
