<svg width="26" height="27" viewBox="0 0 26 27" fill="none" xmlns="http://www.w3.org/2000/svg">
<g clip-path="url(#clip0_1_21101)">
<path d="M20.6321 14.6094L23.685 14.6094C24.1065 14.6094 24.4482 14.2677 24.4482 13.8461L24.4482 1.63469C24.4482 1.21321 24.1065 0.871448 23.685 0.871448L20.6321 0.871448C20.2107 0.871448 19.8689 1.21315 19.8689 1.63469L19.8689 13.8462C19.8689 14.2677 20.2106 14.6094 20.6321 14.6094Z" fill="white"/>
<path d="M1.56717 12.5849C1.70179 13.7689 2.80775 14.608 3.99933 14.608L9.94961 14.608C9.44394 15.5135 9.17251 18.0746 9.18454 19.1207C9.2045 20.8525 10.6386 22.2402 12.3704 22.2402L13.0002 22.2402C13.422 22.2402 13.7634 21.8989 13.7634 21.477C13.7634 19.7121 14.4507 16.5265 15.7467 15.2304C16.6191 14.358 17.3649 14.0419 18.3428 13.5532L18.3428 2.10109C16.8456 1.60206 14.9447 0.870052 12.0472 0.870052L7.05463 0.870051C5.40958 0.870051 4.12837 2.39364 4.76582 4.0034C3.79463 4.26797 3.07842 5.15867 3.07842 6.21258C3.07842 6.51001 3.1358 6.79469 3.23939 7.05631C1.60277 7.50222 1.00035 9.52306 2.13627 10.7919C1.71896 11.2581 1.48881 11.8959 1.56717 12.5849Z" fill="white"/>
</g>
<defs>
<clipPath id="clip0_1_21101">
<rect width="26" height="26" fill="white" transform="translate(26 26.8711) rotate(-180)"/>
</clipPath>
</defs>
</svg>
