<svg width="27" height="26" viewBox="0 0 27 26" fill="none" xmlns="http://www.w3.org/2000/svg">
<g clip-path="url(#clip0_1_21110)">
<path d="M6.239 12.2617H3.18609C2.76461 12.2617 2.42285 12.6034 2.42285 13.025V25.2364C2.42285 25.6579 2.76456 25.9996 3.18609 25.9996H6.23895C6.66044 25.9996 7.00219 25.6579 7.00219 25.2364V13.0249C7.00219 12.6034 6.66054 12.2617 6.239 12.2617Z" fill="white"/>
<path d="M25.3039 14.2862C25.1693 13.1022 24.0633 12.2631 22.8718 12.2631H16.9215C17.4272 11.3576 17.6986 8.79654 17.6865 7.75035C17.6666 6.01861 16.2325 4.63086 14.5007 4.63086H13.8709C13.4491 4.63086 13.1077 4.97221 13.1077 5.3941C13.1077 7.159 12.4204 10.3446 11.1244 11.6407C10.252 12.5131 9.50621 12.8292 8.52832 13.3179V24.77C10.0255 25.269 11.9264 26.001 14.8239 26.001H19.8165C21.4615 26.001 22.7427 24.4775 22.1053 22.8677C23.0765 22.6031 23.7927 21.7124 23.7927 20.6585C23.7927 20.3611 23.7353 20.0764 23.6317 19.8148C25.2683 19.3689 25.8707 17.348 24.7348 16.0792C25.1521 15.6129 25.3823 14.9752 25.3039 14.2862Z" fill="white"/>
</g>
<defs>
<clipPath id="clip0_1_21110">
<rect width="26" height="26" fill="white" transform="translate(0.871094)"/>
</clipPath>
</defs>
</svg>
